<svg width="128" height="128" viewBox="0 0 33.867 33.867" xmlns:xlink="http://www.w3.org/1999/xlink" xmlns="http://www.w3.org/2000/svg"><defs><linearGradient id="d"><stop style="stop-color:#8c3f23;stop-opacity:1" offset="0"/><stop style="stop-color:#d7704a;stop-opacity:1" offset="1"/></linearGradient><linearGradient id="b"><stop style="stop-color:#8c3f23;stop-opacity:1" offset="0"/><stop style="stop-color:#d87a56;stop-opacity:1" offset="1"/></linearGradient><linearGradient id="a"><stop style="stop-color:#8c3f23;stop-opacity:1" offset="0"/><stop style="stop-color:#e0815b;stop-opacity:1" offset="1"/></linearGradient><linearGradient id="e"><stop style="stop-color:#8c3f23;stop-opacity:1" offset="0"/><stop style="stop-color:#dc7f5c;stop-opacity:1" offset="1"/></linearGradient><linearGradient id="c"><stop style="stop-color:#8c3f23;stop-opacity:1" offset="0"/><stop style="stop-color:#db8769;stop-opacity:1" offset="1"/></linearGradient><linearGradient xlink:href="#a" id="k" gradientUnits="userSpaceOnUse" x1="15.559" y1="10.641" x2="15.559" y2="11.091" gradientTransform="matrix(1.4183 0 0 1.15432 -7.589 -2.427)"/><linearGradient xlink:href="#b" id="l" gradientUnits="userSpaceOnUse" gradientTransform="matrix(1.4183 0 0 1.15432 -7.589 2.19)" x1="15.882" y1="10.513" x2="15.882" y2="11"/><linearGradient xlink:href="#c" id="m" gradientUnits="userSpaceOnUse" gradientTransform="matrix(1.4183 0 0 1.15432 -7.589 -.118)" x1="15.789" y1="10.577" x2="15.789" y2="11"/><linearGradient xlink:href="#d" id="n" gradientUnits="userSpaceOnUse" gradientTransform="matrix(1.4183 0 0 1.15432 -7.589 4.499)" x1="15.901" y1="10.523" x2="15.898" y2="11"/><linearGradient xlink:href="#e" id="o" gradientUnits="userSpaceOnUse" gradientTransform="matrix(1.4183 0 0 1.15432 -7.589 6.807)" x1="15.882" y1="10.534" x2="15.882" y2="11.132"/><filter style="color-interpolation-filters:sRGB" id="f" x="-.056" y="-.055" width="1.113" height="1.11"><feGaussianBlur stdDeviation=".237"/></filter><filter style="color-interpolation-filters:sRGB" id="g" x="-.157" y="-.332" width="1.315" height="1.663"><feGaussianBlur stdDeviation=".196"/></filter><filter style="color-interpolation-filters:sRGB" id="h" x="-.157" y="-.332" width="1.315" height="1.663"><feGaussianBlur stdDeviation=".196"/></filter><filter style="color-interpolation-filters:sRGB" id="i" x="-.157" y="-.332" width="1.315" height="1.663"><feGaussianBlur stdDeviation=".196"/></filter><clipPath clipPathUnits="userSpaceOnUse" id="j"><ellipse style="fill:#303030;fill-opacity:.838129;stroke-width:.660344" cx="15" cy="14.77" rx="10" ry="5.77"/></clipPath></defs><g style="display:inline" transform="matrix(.7623 0 0 .68764 3.943 4.844)"><path style="fill:#3d3d3d;filter:url(#f)" d="M22 17.594c-3.163-.079-5.71 3.327-4.9 6.347.59 2.863 3.992 4.821 6.722 3.607 2.856-1.08 4.151-4.952 2.441-7.508-.884-1.463-2.54-2.456-4.263-2.446Zm.232 2.812c1.925.177 2.711 3.008 1.17 4.167-1.165 1.072-3.264.362-3.539-1.2-.452-1.473.793-3.146 2.37-2.967z" transform="matrix(.90984 0 0 .89818 5.171 4.234)"/><path style="fill:#8c3f23" d="M2.327 6.022c-1.235 1.13-1.235 24.849 0 25.978 1.234 1.13 28.403 1.13 29.638 0 1.234-1.13 1.234-24.848 0-25.978-1.235-1.129-28.404-1.129-29.638 0zm2.47 2.26c1.234-1.13 23.47-1.124 24.698 0 1.235 1.129 1.235 20.33 0 21.46-1.235 1.129-23.464 1.129-24.699 0-1.235-1.13-1.235-20.331 0-21.46z"/><path style="fill:#8c3f23" d="M6.634 6.044s.562-2.28 2.45-3.41C10.97 1.504 20.85.375 20.85.375v1.13s-6.87.93-9.311 1.727c-2.44.798-2.281 2.812-2.281 2.812ZM25.028 20.04c-2.644-.065-4.773 2.77-4.096 5.284.494 2.382 3.338 4.013 5.62 3.002 2.386-.9 3.47-4.122 2.04-6.25-.74-1.218-2.124-2.044-3.564-2.036zm.195 2.341c1.608.147 2.266 2.504.977 3.469-.973.892-2.728.301-2.958-.999-.378-1.227.663-2.62 1.98-2.47z"/><ellipse style="fill:#8c3f23" cx="25.019" cy="24.335" rx="1.327" ry="1.375"/><path style="fill:#2d2d2d;fill-opacity:.81860501;stroke:none;stroke-width:1.25648;filter:url(#g)" d="M7.688 24.883h2.984V26.3H7.688z" transform="matrix(1.17465 0 0 1.90077 -2.466 -21.636)"/><path style="fill:#2d2d2d;fill-opacity:.81860501;stroke:none;stroke-width:1.25648;filter:url(#h)" d="M11.866 24.883h2.984V26.3h-2.984z" transform="matrix(1.17465 0 0 1.90077 -2.466 -21.636)"/><path style="fill:#2d2d2d;fill-opacity:.81860501;stroke:none;stroke-width:1.25648;filter:url(#i)" d="M16.044 24.883h2.984V26.3h-2.984z" transform="matrix(1.17465 0 0 1.90077 -2.466 -21.636)"/><g style="display:inline"><path style="fill:#8c3f23;fill-opacity:1;stroke:none;stroke-width:1.3751" d="M7.688 24.836h2.984v1.697H7.688zm4.178 0h2.984v1.697h-2.984zm4.178 0h2.984v1.697h-2.984z" transform="matrix(1.1631 0 0 1.36028 -3.007 -8.507)"/></g></g><g clip-path="url(#j)" transform="matrix(.7623 0 0 .68764 3.943 4.844)"><path style="fill:url(#k);stroke-width:1.05916" d="M5.24 9.116h19.437v1.154H5.24z"/><path style="fill:url(#l);stroke-width:1.05916" d="M5.24 13.733h19.437v1.154H5.24z"/><path style="fill:url(#m);stroke-width:1.05916" d="M5.24 11.425h19.437v1.154H5.24z"/><path style="fill:url(#n);stroke-width:1.05916" d="M5.24 16.042h19.437v1.154H5.24z"/><path style="fill:url(#o);stroke-width:1.05916" d="M5.24 18.351h19.437v1.154H5.24z"/></g></svg>