<svg width="128" height="128" viewBox="0 0 33.867 33.867" xmlns:xlink="http://www.w3.org/1999/xlink" xmlns="http://www.w3.org/2000/svg"><defs><linearGradient id="a"><stop style="stop-color:#64271b;stop-opacity:1" offset="0"/><stop style="stop-color:#d05f35;stop-opacity:1" offset="1"/></linearGradient><linearGradient xlink:href="#a" id="e" gradientUnits="userSpaceOnUse" x1="15.875" y1="10" x2="15.875" y2="12" gradientTransform="matrix(1.46728 0 0 1.05833 -8.51 -.558)"/><linearGradient xlink:href="#a" id="f" gradientUnits="userSpaceOnUse" gradientTransform="matrix(1.46728 0 0 1.05833 -8.51 3.675)" x1="15.875" y1="10" x2="15.875" y2="12"/><linearGradient xlink:href="#a" id="g" gradientUnits="userSpaceOnUse" gradientTransform="matrix(1.46728 0 0 1.05833 -8.51 1.558)" x1="15.875" y1="10" x2="15.875" y2="12"/><linearGradient xlink:href="#a" id="h" gradientUnits="userSpaceOnUse" gradientTransform="matrix(1.46728 0 0 1.05833 -8.51 5.792)" x1="15.875" y1="10" x2="15.875" y2="12"/><linearGradient xlink:href="#a" id="i" gradientUnits="userSpaceOnUse" gradientTransform="matrix(1.46728 0 0 1.05833 -8.51 7.908)" x1="15.875" y1="10" x2="15.875" y2="12"/><filter style="color-interpolation-filters:sRGB" id="c" x="-.129" y="-.257" width="1.257" height="1.515"><feGaussianBlur stdDeviation=".161"/></filter><filter style="color-interpolation-filters:sRGB" id="b" x="-.056" y="-.055" width="1.113" height="1.11"><feGaussianBlur stdDeviation=".237"/></filter><clipPath clipPathUnits="userSpaceOnUse" id="d"><ellipse style="fill:#303030;fill-opacity:.838129;stroke-width:.660344" cx="15" cy="14.77" rx="10" ry="5.77"/></clipPath></defs><g style="display:inline"><path style="filter:url(#b);fill:#3d3d3d" d="M22 17.594c-3.163-.079-5.71 3.327-4.9 6.347.59 2.863 3.992 4.821 6.722 3.607 2.856-1.08 4.151-4.952 2.441-7.508-.884-1.463-2.54-2.456-4.263-2.446Zm.232 2.812c1.925.177 2.711 3.008 1.17 4.167-1.165 1.072-3.264.362-3.539-1.2-.452-1.473.793-3.146 2.37-2.967z" transform="matrix(.90984 0 0 .89818 5.171 4.234)"/><path style="fill:#8c3f23" d="M2.327 6.022c-1.235 1.13-1.235 24.849 0 25.978 1.234 1.13 28.403 1.13 29.638 0 1.234-1.13 1.234-24.848 0-25.978-1.235-1.129-28.404-1.129-29.638 0zm2.47 2.26c1.234-1.13 23.47-1.124 24.698 0 1.235 1.129 1.235 20.33 0 21.46-1.235 1.129-23.464 1.129-24.699 0-1.235-1.13-1.235-20.331 0-21.46z"/><path style="fill:#8c3f23" d="M7 5.403S9.084 3.08 11 2C14.55 0 27 .541 27 .541L26 2s-7.56.202-10 1c-2.44.798-4 2.472-4 2.472zM25.028 20.04c-2.644-.065-4.773 2.77-4.096 5.284.494 2.382 3.338 4.013 5.62 3.002 2.386-.9 3.47-4.122 2.04-6.25-.74-1.218-2.124-2.044-3.564-2.036zm.195 2.341c1.608.147 2.266 2.504.977 3.469-.973.892-2.728.301-2.958-.999-.378-1.227.663-2.62 1.98-2.47z"/><ellipse style="fill:#8c3f23" cx="25.019" cy="24.335" rx="1.327" ry="1.375"/><g style="display:inline"><path style="display:inline;fill:#3d3d3d;fill-opacity:1;stroke:none;stroke-width:1.29618;filter:url(#c)" transform="matrix(1.17905 0 0 1.31255 -3.937 -7.523)" d="M8.317 25.54h3v1.5h-3z"/><path style="display:inline;fill:#3d3d3d;fill-opacity:1;stroke:none;stroke-width:1.29618;filter:url(#c)" transform="matrix(1.14789 0 0 1.31255 -2.695 -7.523)" d="M11.908 25.54h3v1.5h-3z"/><path style="display:inline;fill:#3d3d3d;fill-opacity:1;stroke:none;stroke-width:1.29618;filter:url(#c)" transform="matrix(1.2413 0 0 1.31255 -3.102 -7.523)" d="M15.5 25.54h3v1.5h-3z"/><path style="display:inline;fill:#8c3f23;fill-opacity:1;stroke:none;stroke-width:.216898" d="M7.992 24.947h.061v2.067h-.061z" transform="matrix(52.0872 0 0 1.02394 -411.005 -.144)"/><path style="fill:#8c3f23;fill-opacity:1;stroke:none;stroke-width:.216898" d="M8.094 24.947h.061v2.067h-.061zm.101 0h.061v2.067h-.061z" transform="matrix(52.0872 0 0 1.02394 -411.005 -.144)"/></g></g><g clip-path="url(#d)" transform="translate(0 -.5)"><path style="fill:url(#e);stroke-width:1.03153" d="M4.763 10.025h20.108v1.058H4.763z"/><path style="fill:url(#f);stroke-width:1.03153" d="M4.763 14.258h20.108v1.058H4.763z"/><path style="fill:url(#g);stroke-width:1.03153" d="M4.763 12.142h20.108V13.2H4.763z"/><path style="fill:url(#h);stroke-width:1.03153" d="M4.763 16.375h20.108v1.058H4.763z"/><path style="fill:url(#i);stroke-width:1.03153" d="M4.763 18.492h20.108v1.058H4.763z"/></g></svg>