<?xml version="1.0" encoding="UTF-8" standalone="no"?>
<!-- Created with Inkscape (http://www.inkscape.org/) -->

<svg
   width="128"
   height="128"
   viewBox="0 0 33.866667 33.866666"
   version="1.1"
   id="svg1"
   inkscape:version="1.4 (86a8ad7, 2024-10-11)"
   sodipodi:docname="logo.svg"
   xmlns:inkscape="http://www.inkscape.org/namespaces/inkscape"
   xmlns:sodipodi="http://sodipodi.sourceforge.net/DTD/sodipodi-0.dtd"
   xmlns:xlink="http://www.w3.org/1999/xlink"
   xmlns="http://www.w3.org/2000/svg"
   xmlns:svg="http://www.w3.org/2000/svg">
  <sodipodi:namedview
     id="namedview1"
     pagecolor="#505050"
     bordercolor="#ffffff"
     borderopacity="1"
     inkscape:showpageshadow="0"
     inkscape:pageopacity="0"
     inkscape:pagecheckerboard="1"
     inkscape:deskcolor="#505050"
     inkscape:document-units="px"
     inkscape:zoom="6.3671875"
     inkscape:cx="68.633129"
     inkscape:cy="64"
     inkscape:window-width="1920"
     inkscape:window-height="1017"
     inkscape:window-x="-8"
     inkscape:window-y="-8"
     inkscape:window-maximized="1"
     inkscape:current-layer="svg1"
     showgrid="true">
    <inkscape:grid
       id="grid1"
       units="mm"
       originx="0"
       originy="0"
       spacingx="1"
       spacingy="0.99999998"
       empcolor="#0099e5"
       empopacity="0.30196078"
       color="#0099e5"
       opacity="0.14901961"
       empspacing="5"
       dotted="false"
       gridanglex="30"
       gridanglez="30"
       visible="true" />
  </sodipodi:namedview>
  <defs
     id="defs1">
    <linearGradient
       id="linearGradient1"
       inkscape:collect="always">
      <stop
         style="stop-color:#64271b;stop-opacity:1;"
         offset="0"
         id="stop1" />
      <stop
         style="stop-color:#d05f35;stop-opacity:1;"
         offset="1"
         id="stop2" />
    </linearGradient>
    <filter
       inkscape:collect="always"
       style="color-interpolation-filters:sRGB"
       id="filter21"
       x="-0.12873907"
       y="-0.25747822"
       width="1.2574781"
       height="1.5149564">
      <feGaussianBlur
         inkscape:collect="always"
         stdDeviation="0.16092384"
         id="feGaussianBlur21" />
    </filter>
    <filter
       inkscape:collect="always"
       style="color-interpolation-filters:sRGB"
       id="filter22"
       x="-0.056372177"
       y="-0.055061695"
       width="1.1127444"
       height="1.1101234">
      <feGaussianBlur
         inkscape:collect="always"
         stdDeviation="0.23681524"
         id="feGaussianBlur22" />
    </filter>
    <linearGradient
       inkscape:collect="always"
       xlink:href="#linearGradient1"
       id="linearGradient5"
       gradientUnits="userSpaceOnUse"
       x1="15.874928"
       y1="10"
       x2="15.874928"
       y2="12"
       gradientTransform="matrix(1.4672802,0,0,1.0583336,-8.5095834,-0.55833657)" />
    <linearGradient
       inkscape:collect="always"
       xlink:href="#linearGradient1"
       id="linearGradient4"
       gradientUnits="userSpaceOnUse"
       gradientTransform="matrix(1.4672802,0,0,1.0583336,-8.5095838,3.674997)"
       x1="15.874928"
       y1="10"
       x2="15.874928"
       y2="12" />
    <linearGradient
       inkscape:collect="always"
       xlink:href="#linearGradient1"
       id="linearGradient6"
       gradientUnits="userSpaceOnUse"
       gradientTransform="matrix(1.4672802,0,0,1.0583336,-8.5095838,1.5583303)"
       x1="15.874928"
       y1="10"
       x2="15.874928"
       y2="12" />
    <linearGradient
       inkscape:collect="always"
       xlink:href="#linearGradient1"
       id="linearGradient7"
       gradientUnits="userSpaceOnUse"
       gradientTransform="matrix(1.4672802,0,0,1.0583336,-8.5095838,5.7916625)"
       x1="15.874928"
       y1="10"
       x2="15.874928"
       y2="12" />
    <linearGradient
       inkscape:collect="always"
       xlink:href="#linearGradient1"
       id="linearGradient8"
       gradientUnits="userSpaceOnUse"
       gradientTransform="matrix(1.4672802,0,0,1.0583336,-8.5095838,7.9083288)"
       x1="15.874928"
       y1="10"
       x2="15.874928"
       y2="12" />
    <clipPath
       clipPathUnits="userSpaceOnUse"
       id="clipPath8">
      <ellipse
         style="fill:#303030;fill-opacity:0.838129;stroke-width:0.660344"
         id="ellipse9"
         cx="15"
         cy="14.769507"
         rx="10"
         ry="5.7695084" />
    </clipPath>
  </defs>
  <rect
     style="display:none;fill:#80bfbf;fill-opacity:1;stroke:none;stroke-width:1.05833"
     id="rect3"
     width="33.866665"
     height="33.866665"
     x="8.9009603e-07"
     y="8.9009603e-07"
     inkscape:label="bg" />
  <g
     inkscape:label="Layer 1"
     inkscape:groupmode="layer"
     id="layer1"
     style="display:inline">
    <path
       id="path22"
       style="filter:url(#filter22);fill:#3d3d3d;"
       d="m 22,17.59375 c -3.16348,-0.07859 -5.70986,3.327399 -4.900391,6.347656 0.590658,2.862408 3.992815,4.820993 6.722095,3.606995 2.855945,-1.081259 4.151665,-4.952498 2.441494,-7.508303 C 25.378674,18.576725 23.722183,17.584269 22,17.59375 Z m 0.232422,2.8125 c 1.924743,0.176266 2.71096,3.007958 1.168901,4.167086 -1.164108,1.071527 -3.263478,0.361952 -3.537832,-1.199898 -0.452171,-1.47375 0.792693,-3.146595 2.368931,-2.967188 z"
       transform="matrix(0.90983759,0,0,0.89817643,5.1710913,4.2342489)" />
    <path
       style="fill:#8c3f23;"
       d="m 2.3265603,6.0224526 c -1.2349161,1.1294587 -1.2349166,24.8480894 0,25.9775484 1.2349161,1.129458 28.4030727,1.129458 29.6379887,0 1.234917,-1.129459 1.234917,-24.8480897 0,-25.9775484 -1.234916,-1.1294589 -28.4030725,-1.1294586 -29.6379887,0 z m 2.4698323,2.2589173 c 1.2349163,-1.1294586 23.4700944,-1.1233436 24.6983234,0 1.234917,1.1294582 1.234917,20.3302541 0,21.4597131 -1.234916,1.129459 -23.4634071,1.129459 -24.6983234,0 -1.2349166,-1.129459 -1.2349162,-20.3302549 0,-21.4597131 z"
       id="rect1"
       sodipodi:nodetypes="ssssssssss" />
    <path
       style="fill:#8c3f23"
       d="M 6.9999999,5.4033147 C 6.9999999,5.4033147 9.0837375,3.079723 11,2 14.549545,0 27,0.54137644 27,0.54137644 L 26,2 c 0,0 -7.559617,0.2021265 -10,1.0000001 -2.440385,0.7978733 -4,2.4717972 -4,2.4717972 z"
       id="path16"
       sodipodi:nodetypes="csccscc" />
    <path
       id="path3"
       style="fill:#8c3f23;"
       d="m 25.028295,20.040128 c -2.644385,-0.06542 -4.772931,2.76968 -4.096287,5.283695 0.493737,2.382629 3.337636,4.012926 5.619068,3.002412 2.387315,-0.900025 3.47042,-4.122386 2.040871,-6.249802 -0.739384,-1.21809 -2.124062,-2.044197 -3.563652,-2.036305 z m 0.194285,2.341085 c 1.608913,0.146721 2.266118,2.503779 0.977096,3.46862 -0.97309,0.891925 -2.727976,0.301284 -2.957311,-0.998777 -0.377975,-1.226727 0.66262,-2.619179 1.980215,-2.469843 z" />
    <ellipse
       style="fill:#8c3f23;"
       id="path21"
       cx="25.019165"
       cy="24.335033"
       rx="1.3266859"
       ry="1.3753996" />
    <g
       id="g19"
       transform="matrix(1.1630995,0,0,1.3602844,-2.958823,-8.676685)"
       style="filter:url(#filter21);fill:#3d3d3d;display:inline;" />
    <g
       id="g21"
       transform="matrix(52.087201,0,0,1.0239398,-411.00468,-0.14391387)"
       style="display:inline">
      <rect
         style="display:inline;fill:#3d3d3d;fill-opacity:1;stroke:none;stroke-width:1.29618;filter:url(#filter21)"
         id="rect17"
         width="3"
         height="1.4999995"
         x="8.3169708"
         y="25.540205"
         transform="matrix(0.022636,0,0,1.2818586,7.815126,-7.206264)" />
      <rect
         style="display:inline;fill:#3d3d3d;fill-opacity:1;stroke:none;stroke-width:1.29618;filter:url(#filter21)"
         id="rect18"
         width="3"
         height="1.4999995"
         x="11.908485"
         y="25.540205"
         transform="matrix(0.02203776,0,0,1.2818586,7.8389712,-7.206264)" />
      <rect
         style="display:inline;fill:#3d3d3d;fill-opacity:1;stroke:none;stroke-width:1.29618;filter:url(#filter21)"
         id="rect19"
         width="3"
         height="1.4999995"
         x="15.5"
         y="25.540205"
         transform="matrix(0.02383118,0,0,1.2818586,7.8311482,-7.206264)" />
      <rect
         style="display:inline;fill:#8c3f23;fill-opacity:1;stroke:none;stroke-width:0.216898"
         id="rect9"
         width="0.060955472"
         height="2.0671787"
         x="7.9922962"
         y="24.946695" />
      <rect
         style="fill:#8c3f23;fill-opacity:1;stroke:none;stroke-width:0.216898"
         id="rect10"
         width="0.060955472"
         height="2.0671787"
         x="8.0938892"
         y="24.946695" />
      <rect
         style="fill:#8c3f23;fill-opacity:1;stroke:none;stroke-width:0.216898"
         id="rect11"
         width="0.060955472"
         height="2.0671787"
         x="8.1954813"
         y="24.946695" />
    </g>
  </g>
  <g
     id="g20"
     clip-path="url(#clipPath8)"
     transform="translate(-2.4606294e-7,-0.49999976)">
    <rect
       style="fill:url(#linearGradient5);stroke-width:1.03153"
       id="rect12"
       width="20.108334"
       height="1.0583333"
       x="4.7625003"
       y="10.025" />
    <rect
       style="fill:url(#linearGradient4);stroke-width:1.03153"
       id="use1"
       width="20.108334"
       height="1.0583333"
       x="4.7625003"
       y="14.258333" />
    <rect
       style="fill:url(#linearGradient6);stroke-width:1.03153"
       id="use2"
       width="20.108334"
       height="1.0583333"
       x="4.7625003"
       y="12.141666" />
    <rect
       style="fill:url(#linearGradient7);stroke-width:1.03153"
       id="use3"
       width="20.108334"
       height="1.0583333"
       x="4.7625003"
       y="16.375" />
    <rect
       style="fill:url(#linearGradient8);stroke-width:1.03153"
       id="use4"
       width="20.108334"
       height="1.0583333"
       x="4.7625003"
       y="18.491667" />
  </g>
</svg>
