<?xml version="1.0" encoding="UTF-8" standalone="no"?>
<!-- Created with Inkscape (http://www.inkscape.org/) -->

<svg
   width="128"
   height="128"
   viewBox="0 0 33.866667 33.866666"
   version="1.1"
   id="svg1"
   inkscape:version="1.4 (86a8ad7, 2024-10-11)"
   sodipodi:docname="logo.svg"
   xmlns:inkscape="http://www.inkscape.org/namespaces/inkscape"
   xmlns:sodipodi="http://sodipodi.sourceforge.net/DTD/sodipodi-0.dtd"
   xmlns="http://www.w3.org/2000/svg"
   xmlns:svg="http://www.w3.org/2000/svg">
  <sodipodi:namedview
     id="namedview1"
     pagecolor="#505050"
     bordercolor="#ffffff"
     borderopacity="1"
     inkscape:showpageshadow="0"
     inkscape:pageopacity="0"
     inkscape:pagecheckerboard="1"
     inkscape:deskcolor="#505050"
     inkscape:document-units="mm"
     inkscape:zoom="6.3671875"
     inkscape:cx="63.921472"
     inkscape:cy="64"
     inkscape:window-width="1920"
     inkscape:window-height="1017"
     inkscape:window-x="-8"
     inkscape:window-y="-8"
     inkscape:window-maximized="1"
     inkscape:current-layer="layer1"
     showgrid="true">
    <inkscape:grid
       id="grid1"
       units="mm"
       originx="0"
       originy="0"
       spacingx="1"
       spacingy="0.99999998"
       empcolor="#0099e5"
       empopacity="0.30196078"
       color="#0099e5"
       opacity="0.14901961"
       empspacing="5"
       dotted="false"
       gridanglex="30"
       gridanglez="30"
       visible="true" />
  </sodipodi:namedview>
  <defs
     id="defs1">
    <filter
       inkscape:collect="always"
       style="color-interpolation-filters:sRGB"
       id="filter21"
       x="-0.037927537"
       y="-0.25747822"
       width="1.0758551"
       height="1.5149564">
      <feGaussianBlur
         inkscape:collect="always"
         stdDeviation="0.16092384"
         id="feGaussianBlur21" />
    </filter>
    <filter
       inkscape:collect="always"
       style="color-interpolation-filters:sRGB"
       id="filter22"
       x="-0.056372177"
       y="-0.055061695"
       width="1.1127444"
       height="1.1101234">
      <feGaussianBlur
         inkscape:collect="always"
         stdDeviation="0.23681524"
         id="feGaussianBlur22" />
    </filter>
  </defs>
  <rect
     style="display:none;fill:#80bfbf;fill-opacity:1;stroke:none;stroke-width:1.05833"
     id="rect3"
     width="33.866665"
     height="33.866665"
     x="8.9009603e-07"
     y="8.9009603e-07"
     inkscape:label="bg" />
  <g
     inkscape:label="Layer 1"
     inkscape:groupmode="layer"
     id="layer1">
    <path
       id="path22"
       style="fill:#303030;fill-opacity:0.83812952;stroke-width:1.00048;stroke-dasharray:none;filter:url(#filter22)"
       d="m 22,17.59375 c -3.16348,-0.07859 -5.70986,3.327399 -4.900391,6.347656 0.590658,2.862408 3.992815,4.820993 6.722095,3.606995 2.855945,-1.081259 4.151665,-4.952498 2.441494,-7.508303 C 25.378674,18.576725 23.722183,17.584269 22,17.59375 Z m 0.232422,2.8125 c 1.924743,0.176266 2.71096,3.007958 1.168901,4.167086 -1.164108,1.071527 -3.263478,0.361952 -3.537832,-1.199898 -0.452171,-1.47375 0.792693,-3.146595 2.368931,-2.967188 z"
       transform="matrix(0.90983759,0,0,0.89817643,5.1710913,4.2342489)" />
    <path
       style="color:#000000;fill:#8c3f23;fill-opacity:1;stroke-width:1.18101;-inkscape-stroke:none"
       d="m 2.3265603,6.0224526 c -1.2349161,1.1294587 -1.2349166,24.8480894 0,25.9775484 1.2349161,1.129458 28.4030727,1.129458 29.6379887,0 1.234917,-1.129459 1.234917,-24.8480897 0,-25.9775484 -1.234916,-1.1294589 -28.4030725,-1.1294586 -29.6379887,0 z m 2.4698323,2.2589173 c 1.2349163,-1.1294586 23.4700944,-1.1233436 24.6983234,0 1.234917,1.1294582 1.234917,20.3302541 0,21.4597131 -1.234916,1.129459 -23.4634071,1.129459 -24.6983234,0 -1.2349166,-1.129459 -1.2349162,-20.3302549 0,-21.4597131 z"
       id="rect1"
       sodipodi:nodetypes="ssssssssss" />
    <path
       style="fill:#8c3f23;fill-opacity:1;stroke:none;stroke-width:1.24989"
       d="m 6.9999999,5.4033147 c 0,0 0.1962215,-1.6397794 2.0835971,-2.7692377 C 10.970974,1.5046183 20.850301,0.37515967 20.850301,0.37515967 V 1.5046183 c 0,0 -6.871134,0.9295281 -9.311517,1.7274017 C 9.0983987,4.0298933 8.8184543,5.3193013 8.8184543,5.3193013 Z"
       id="path16"
       sodipodi:nodetypes="csccscc" />
    <path
       id="path3"
       style="fill:#8c3f23;fill-opacity:1;stroke-width:0.834547;stroke-dasharray:none"
       d="m 25.028295,20.040128 c -2.644385,-0.06542 -4.772931,2.76968 -4.096287,5.283695 0.493737,2.382629 3.337636,4.012926 5.619068,3.002412 2.387315,-0.900025 3.47042,-4.122386 2.040871,-6.249802 -0.739384,-1.21809 -2.124062,-2.044197 -3.563652,-2.036305 z m 0.194285,2.341085 c 1.608913,0.146721 2.266118,2.503779 0.977096,3.46862 -0.97309,0.891925 -2.727976,0.301284 -2.957311,-0.998777 -0.377975,-1.226727 0.66262,-2.619179 1.980215,-2.469843 z" />
    <ellipse
       style="fill:#8c3f23;fill-opacity:1;stroke:none;stroke-width:0.768224"
       id="path21"
       cx="25.019165"
       cy="24.335033"
       rx="1.3266859"
       ry="1.3753996" />
    <g
       id="g22"
       transform="matrix(0.77808854,0,0,0.65983872,8.4911751,10.628956)"
       style="fill:#303030;fill-opacity:0.884892;stroke-width:1.00048;stroke-dasharray:none;filter:url(#filter22)" />
  </g>
  <g
     id="g19"
     transform="matrix(1.1630995,0,0,1.3602844,-2.9588229,-8.676685)"
     style="fill:#3d3d3d;fill-opacity:1;filter:url(#filter21)">
    <rect
       style="fill:#3d3d3d;fill-opacity:1;stroke:none;stroke-width:1.29618"
       id="rect17"
       width="3"
       height="1.4999995"
       x="8.3169708"
       y="25.540205" />
    <rect
       style="fill:#3d3d3d;fill-opacity:1;stroke:none;stroke-width:1.29618"
       id="rect18"
       width="3"
       height="1.4999995"
       x="11.908485"
       y="25.540205" />
    <rect
       style="fill:#3d3d3d;fill-opacity:1;stroke:none;stroke-width:1.29618"
       id="rect19"
       width="3"
       height="1.4999995"
       x="15.5"
       y="25.540205" />
  </g>
  <g
     id="g21"
     transform="matrix(1.1630995,0,0,1.3602844,-3.0071546,-8.5071085)">
    <rect
       style="fill:#8c3f23;fill-opacity:1;stroke:none;stroke-width:1.29618"
       id="rect9"
       width="3"
       height="1.4999995"
       x="8.0238466"
       y="25" />
    <rect
       style="fill:#8c3f23;fill-opacity:1;stroke:none;stroke-width:1.29618"
       id="rect10"
       width="3"
       height="1.4999995"
       x="11.615361"
       y="25" />
    <rect
       style="fill:#8c3f23;fill-opacity:1;stroke:none;stroke-width:1.29618"
       id="rect11"
       width="3"
       height="1.4999995"
       x="15.206876"
       y="25" />
  </g>
  <g
     id="g20">
    <rect
       style="fill:#8c3f23;fill-opacity:1;stroke:none;stroke-width:1.05833"
       id="rect12"
       width="12.940613"
       height="0.9999997"
       x="9"
       y="15" />
    <rect
       style="fill:#8c3f23;fill-opacity:1;stroke:none;stroke-width:0.975757"
       id="rect13"
       width="11"
       height="0.9999997"
       x="10"
       y="17.127523" />
    <rect
       style="fill:#8c3f23;fill-opacity:1;stroke:none;stroke-width:0.975752"
       id="rect14"
       width="11"
       height="0.9999997"
       x="10"
       y="12.872477" />
    <rect
       style="fill:#8c3f23;fill-opacity:1;stroke:none;stroke-width:0.657852"
       id="rect15"
       width="5"
       height="0.9999997"
       x="13"
       y="10.960983" />
    <rect
       style="fill:#8c3f23;fill-opacity:1;stroke:none;stroke-width:0.657852"
       id="rect16"
       width="5"
       height="0.9999997"
       x="13"
       y="19.039017" />
  </g>
</svg>
