<?xml version="1.0" encoding="UTF-8" standalone="no"?>
<!-- Created with Inkscape (http://www.inkscape.org/) -->

<svg
   width="128"
   height="128"
   viewBox="0 0 33.866667 33.866666"
   version="1.1"
   id="svg1"
   inkscape:version="1.4 (86a8ad7, 2024-10-11)"
   sodipodi:docname="logo_win.svg"
   xmlns:inkscape="http://www.inkscape.org/namespaces/inkscape"
   xmlns:sodipodi="http://sodipodi.sourceforge.net/DTD/sodipodi-0.dtd"
   xmlns:xlink="http://www.w3.org/1999/xlink"
   xmlns="http://www.w3.org/2000/svg"
   xmlns:svg="http://www.w3.org/2000/svg">
  <sodipodi:namedview
     id="namedview1"
     pagecolor="#505050"
     bordercolor="#ffffff"
     borderopacity="1"
     inkscape:showpageshadow="0"
     inkscape:pageopacity="0"
     inkscape:pagecheckerboard="1"
     inkscape:deskcolor="#505050"
     inkscape:document-units="px"
     inkscape:zoom="6.3671875"
     inkscape:cx="63.921472"
     inkscape:cy="76.564417"
     inkscape:window-width="1920"
     inkscape:window-height="1017"
     inkscape:window-x="-8"
     inkscape:window-y="-8"
     inkscape:window-maximized="1"
     inkscape:current-layer="svg1"
     showgrid="true">
    <inkscape:grid
       id="grid1"
       units="mm"
       originx="0"
       originy="0"
       spacingx="1"
       spacingy="0.99999998"
       empcolor="#0099e5"
       empopacity="0.30196078"
       color="#0099e5"
       opacity="0.14901961"
       empspacing="5"
       dotted="false"
       gridanglex="30"
       gridanglez="30"
       visible="true" />
  </sodipodi:namedview>
  <defs
     id="defs1">
    <linearGradient
       id="linearGradient1"
       inkscape:collect="always">
      <stop
         style="stop-color:#64271b;stop-opacity:1;"
         offset="0"
         id="stop1" />
      <stop
         style="stop-color:#d05f35;stop-opacity:1;"
         offset="1"
         id="stop2" />
    </linearGradient>
    <filter
       inkscape:collect="always"
       style="color-interpolation-filters:sRGB"
       id="filter21"
       x="-0.15104064"
       y="-0.25747822"
       width="1.3020813"
       height="1.5149564">
      <feGaussianBlur
         inkscape:collect="always"
         stdDeviation="0.16092384"
         id="feGaussianBlur21" />
    </filter>
    <filter
       inkscape:collect="always"
       style="color-interpolation-filters:sRGB"
       id="filter22"
       x="-0.056372177"
       y="-0.055061695"
       width="1.1127444"
       height="1.1101234">
      <feGaussianBlur
         inkscape:collect="always"
         stdDeviation="0.23681524"
         id="feGaussianBlur22" />
    </filter>
    <linearGradient
       inkscape:collect="always"
       xlink:href="#linearGradient1"
       id="linearGradient5"
       gradientUnits="userSpaceOnUse"
       x1="15.874928"
       y1="10"
       x2="15.874928"
       y2="12"
       gradientTransform="matrix(1.4328246,0,0,1.5875005,-7.7257255,-6.3500055)" />
    <linearGradient
       inkscape:collect="always"
       xlink:href="#linearGradient1"
       id="linearGradient4"
       gradientUnits="userSpaceOnUse"
       gradientTransform="matrix(1.4499501,0,0,1.5875005,-8.1153268,-3.1750042)"
       x1="15.874928"
       y1="10"
       x2="15.874928"
       y2="12" />
    <linearGradient
       inkscape:collect="always"
       xlink:href="#linearGradient1"
       id="linearGradient7"
       gradientUnits="userSpaceOnUse"
       gradientTransform="matrix(1.4499501,0,0,1.5875004,-8.1153267,-4.9537498e-6)"
       x1="15.874928"
       y1="10"
       x2="15.874928"
       y2="12" />
    <linearGradient
       inkscape:collect="always"
       xlink:href="#linearGradient1"
       id="linearGradient8"
       gradientUnits="userSpaceOnUse"
       gradientTransform="matrix(1.4499501,0,0,1.5875004,-8.1153267,3.1749944)"
       x1="15.874928"
       y1="10"
       x2="15.874928"
       y2="12" />
    <clipPath
       clipPathUnits="userSpaceOnUse"
       id="clipPath8">
      <ellipse
         style="fill:#303030;fill-opacity:0.838129;stroke-width:0.660344"
         id="ellipse9"
         cx="15"
         cy="14.769507"
         rx="10"
         ry="5.7695084" />
    </clipPath>
  </defs>
  <rect
     style="display:inline;fill:#80bfbf;fill-opacity:1;stroke:none;stroke-width:0.857154"
     id="rect3"
     width="28.936474"
     height="26"
     x="3"
     y="6"
     inkscape:label="bg" />
  <g
     inkscape:label="Layer 1"
     inkscape:groupmode="layer"
     id="layer1"
     style="display:inline">
    <path
       style="fill:#8c3f23;"
       d="m 2.3265603,6.0224526 c -1.2349161,1.1294587 -1.2349166,24.8480894 0,25.9775484 1.2349161,1.129458 28.4030727,1.129458 29.6379887,0 1.234917,-1.129459 1.234917,-24.8480897 0,-25.9775484 -1.234916,-1.1294589 -28.4030725,-1.1294586 -29.6379887,0 z m 2.4698323,2.2589173 c 1.2349163,-1.1294586 23.4700944,-1.1233436 24.6983234,0 1.234917,1.1294582 1.234917,20.3302541 0,21.4597131 -1.234916,1.129459 -23.4634071,1.129459 -24.6983234,0 -1.2349166,-1.129459 -1.2349162,-20.3302549 0,-21.4597131 z"
       id="rect1"
       sodipodi:nodetypes="ssssssssss" />
    <path
       style="fill:#8c3f23"
       d="m 6.9999999,5.4033147 c 0,0 0.1962215,-1.6397794 2.0835971,-2.7692377 C 10.970974,1.5046183 25,0.41671386 25,0.41671386 V 2 c 0,0 -7.559617,0.6419174 -10,1.439791 -2.440385,0.7978733 -3,2.1288355 -3,2.1288355 z"
       id="path16"
       sodipodi:nodetypes="csccscc" />
    <g
       id="g1">
      <path
         id="path22"
         style="display:inline;filter:url(#filter22);fill:#3d3d3d"
         d="m 22,17.59375 c -3.16348,-0.07859 -5.70986,3.327399 -4.900391,6.347656 0.590658,2.862408 3.992815,4.820993 6.722095,3.606995 2.855945,-1.081259 4.151665,-4.952498 2.441494,-7.508303 C 25.378674,18.576725 23.722183,17.584269 22,17.59375 Z m 0.232422,2.8125 c 1.924743,0.176266 2.71096,3.007958 1.168901,4.167086 -1.164108,1.071527 -3.263478,0.361952 -3.537832,-1.199898 -0.452171,-1.47375 0.792693,-3.146595 2.368931,-2.967188 z"
         transform="matrix(0.90983758,0,0,0.89817644,5.1710913,4.2342488)" />
      <path
         id="path3"
         style="fill:#8c3f23;"
         d="m 25.028295,20.040128 c -2.644385,-0.06542 -4.772931,2.76968 -4.096287,5.283695 0.493737,2.382629 3.337636,4.012926 5.619068,3.002412 2.387315,-0.900025 3.47042,-4.122386 2.040871,-6.249802 -0.739384,-1.21809 -2.124062,-2.044197 -3.563652,-2.036305 z m 0.194285,2.341085 c 1.608913,0.146721 2.266118,2.503779 0.977096,3.46862 -0.97309,0.891925 -2.727976,0.301284 -2.957311,-0.998777 -0.377975,-1.226727 0.66262,-2.619179 1.980215,-2.469843 z" />
    </g>
    <g
       id="g21"
       transform="matrix(1.2766338,0,0,2.0704559,-4.6707758,-27.62176)"
       style="display:inline">
      <rect
         style="display:inline;fill:#3d3d3d;filter:url(#filter21);fill-opacity:1;stroke:none;stroke-width:1.21061"
         id="rect17"
         width="2.6169755"
         height="1.4999995"
         x="8.0837412"
         y="25.955748"
         transform="translate(0.04155416,-0.12466247)" />
      <rect
         style="display:inline;fill:#3d3d3d;filter:url(#filter21);fill-opacity:1;stroke:none;stroke-width:1.213"
         id="rect18"
         width="2.6273112"
         height="1.4999995"
         x="12.233521"
         y="26.023191"
         transform="translate(0.04155416,-0.12466247)" />
      <rect
         style="display:inline;fill:#3d3d3d;filter:url(#filter21);fill-opacity:1;stroke:none;stroke-width:1.19667"
         id="rect19"
         width="2.5570416"
         height="1.4999995"
         x="16.438169"
         y="26.023191"
         transform="translate(0.04155416,-0.12466247)" />
      <rect
         style="fill:#8c3f23;fill-opacity:1;stroke:none;stroke-width:1.21061"
         id="rect9"
         width="2.6169755"
         height="1.4999995"
         x="7.8333473"
         y="25.415543" />
      <rect
         style="fill:#8c3f23;fill-opacity:1;stroke:none;stroke-width:1.213"
         id="rect10"
         width="2.6273112"
         height="1.4999995"
         x="11.981974"
         y="25.482986" />
      <rect
         style="fill:#8c3f23;fill-opacity:1;stroke:none;stroke-width:1.19667"
         id="rect11"
         width="2.5570416"
         height="1.4999995"
         x="16.194462"
         y="25.482986" />
    </g>
  </g>
  <g
     id="g20"
     clip-path="url(#clipPath8)"
     transform="matrix(1.0119522,0,0,1,-0.29726092,0)">
    <rect
       style="fill:url(#linearGradient5);stroke-width:1.24846"
       id="rect12"
       width="19.636137"
       height="1.5875"
       x="5.234695"
       y="9.5249996" />
    <rect
       style="fill:url(#linearGradient4);stroke-width:1.25589"
       id="use1"
       width="19.870832"
       height="1.5875"
       x="5"
       y="12.7" />
    <rect
       style="fill:url(#linearGradient7);stroke-width:1.25589"
       id="use3"
       width="19.870832"
       height="1.5875"
       x="5"
       y="15.875" />
    <rect
       style="fill:url(#linearGradient8);stroke-width:1.25589"
       id="use4"
       width="19.870832"
       height="1.5875"
       x="5"
       y="19.049999" />
  </g>
</svg>
