<?xml version="1.0" encoding="UTF-8" standalone="no"?>
<!-- Created with Inkscape (http://www.inkscape.org/) -->

<svg
   width="128"
   height="128"
   viewBox="0 0 33.866667 33.866666"
   version="1.1"
   id="svg1"
   inkscape:version="1.4 (86a8ad7, 2024-10-11)"
   sodipodi:docname="splash.svg"
   xmlns:inkscape="http://www.inkscape.org/namespaces/inkscape"
   xmlns:sodipodi="http://sodipodi.sourceforge.net/DTD/sodipodi-0.dtd"
   xmlns:xlink="http://www.w3.org/1999/xlink"
   xmlns="http://www.w3.org/2000/svg"
   xmlns:svg="http://www.w3.org/2000/svg">
  <sodipodi:namedview
     id="namedview1"
     pagecolor="#505050"
     bordercolor="#ffffff"
     borderopacity="1"
     inkscape:showpageshadow="0"
     inkscape:pageopacity="0"
     inkscape:pagecheckerboard="1"
     inkscape:deskcolor="#505050"
     inkscape:document-units="px"
     inkscape:zoom="6.3671875"
     inkscape:cx="43.818405"
     inkscape:cy="63.371779"
     inkscape:window-width="1920"
     inkscape:window-height="1017"
     inkscape:window-x="-8"
     inkscape:window-y="-8"
     inkscape:window-maximized="1"
     inkscape:current-layer="svg1"
     showgrid="true">
    <inkscape:grid
       id="grid1"
       units="mm"
       originx="0"
       originy="0"
       spacingx="1"
       spacingy="0.99999998"
       empcolor="#0099e5"
       empopacity="0.30196078"
       color="#0099e5"
       opacity="0.14901961"
       empspacing="5"
       dotted="false"
       gridanglex="30"
       gridanglez="30"
       visible="true" />
  </sodipodi:namedview>
  <defs
     id="defs1">
    <linearGradient
       id="linearGradient16"
       inkscape:collect="always">
      <stop
         style="stop-color:#8c3f23;stop-opacity:1;"
         offset="0"
         id="stop15" />
      <stop
         style="stop-color:#d7704a;stop-opacity:1;"
         offset="1"
         id="stop16" />
    </linearGradient>
    <linearGradient
       id="linearGradient14"
       inkscape:collect="always">
      <stop
         style="stop-color:#8c3f23;stop-opacity:1;"
         offset="0"
         id="stop13" />
      <stop
         style="stop-color:#d87a56;stop-opacity:1;"
         offset="1"
         id="stop14" />
    </linearGradient>
    <linearGradient
       id="linearGradient12"
       inkscape:collect="always">
      <stop
         style="stop-color:#8c3f23;stop-opacity:1;"
         offset="0"
         id="stop11" />
      <stop
         style="stop-color:#e0815b;stop-opacity:1;"
         offset="1"
         id="stop12" />
    </linearGradient>
    <linearGradient
       id="linearGradient10"
       inkscape:collect="always">
      <stop
         style="stop-color:#8c3f23;stop-opacity:1;"
         offset="0"
         id="stop9" />
      <stop
         style="stop-color:#dc7f5c;stop-opacity:1;"
         offset="1"
         id="stop10" />
    </linearGradient>
    <linearGradient
       id="linearGradient1"
       inkscape:collect="always">
      <stop
         style="stop-color:#8c3f23;stop-opacity:1;"
         offset="0"
         id="stop1" />
      <stop
         style="stop-color:#db8769;stop-opacity:1;"
         offset="1"
         id="stop2" />
    </linearGradient>
    <filter
       inkscape:collect="always"
       style="color-interpolation-filters:sRGB"
       id="filter22"
       x="-0.056372177"
       y="-0.055061695"
       width="1.1127444"
       height="1.1101234">
      <feGaussianBlur
         inkscape:collect="always"
         stdDeviation="0.23681524"
         id="feGaussianBlur22" />
    </filter>
    <linearGradient
       inkscape:collect="always"
       xlink:href="#linearGradient12"
       id="linearGradient5"
       gradientUnits="userSpaceOnUse"
       x1="15.558641"
       y1="10.640904"
       x2="15.558641"
       y2="11.090646"
       gradientTransform="matrix(1.4182961,0,0,1.1543169,-7.5885279,-2.4270878)" />
    <linearGradient
       inkscape:collect="always"
       xlink:href="#linearGradient14"
       id="linearGradient4"
       gradientUnits="userSpaceOnUse"
       gradientTransform="matrix(1.4182961,0,0,1.154317,-7.5885284,2.1901798)"
       x1="15.881532"
       y1="10.51277"
       x2="15.881532"
       y2="10.999999" />
    <linearGradient
       inkscape:collect="always"
       xlink:href="#linearGradient1"
       id="linearGradient6"
       gradientUnits="userSpaceOnUse"
       gradientTransform="matrix(1.4182961,0,0,1.154317,-7.5885284,-0.11845353)"
       x1="15.789087"
       y1="10.576866"
       x2="15.789087"
       y2="10.999999" />
    <linearGradient
       inkscape:collect="always"
       xlink:href="#linearGradient16"
       id="linearGradient7"
       gradientUnits="userSpaceOnUse"
       gradientTransform="matrix(1.4182961,0,0,1.154317,-7.5885284,4.4988131)"
       x1="15.901341"
       y1="10.523453"
       x2="15.897612"
       y2="11" />
    <linearGradient
       inkscape:collect="always"
       xlink:href="#linearGradient10"
       id="linearGradient8"
       gradientUnits="userSpaceOnUse"
       gradientTransform="matrix(1.4182961,0,0,1.154317,-7.5885284,6.8074463)"
       x1="15.881532"
       y1="10.534135"
       x2="15.881532"
       y2="11.132278" />
    <clipPath
       clipPathUnits="userSpaceOnUse"
       id="clipPath8">
      <ellipse
         style="fill:#303030;fill-opacity:0.838129;stroke-width:0.660344"
         id="ellipse9"
         cx="15"
         cy="14.769507"
         rx="10"
         ry="5.7695084" />
    </clipPath>
    <filter
       inkscape:collect="always"
       style="color-interpolation-filters:sRGB"
       id="filter1"
       x="-0.15747738"
       y="-0.33163997"
       width="1.3149548"
       height="1.6632799">
      <feGaussianBlur
         inkscape:collect="always"
         stdDeviation="0.19580687"
         id="feGaussianBlur1" />
    </filter>
    <filter
       inkscape:collect="always"
       style="color-interpolation-filters:sRGB"
       id="filter2"
       x="-0.15747738"
       y="-0.33163997"
       width="1.3149548"
       height="1.6632799">
      <feGaussianBlur
         inkscape:collect="always"
         stdDeviation="0.19580687"
         id="feGaussianBlur2" />
    </filter>
    <filter
       inkscape:collect="always"
       style="color-interpolation-filters:sRGB"
       id="filter3"
       x="-0.15747738"
       y="-0.33163997"
       width="1.3149548"
       height="1.6632799">
      <feGaussianBlur
         inkscape:collect="always"
         stdDeviation="0.19580687"
         id="feGaussianBlur3" />
    </filter>
  </defs>
  <rect
     style="display:none;fill:#80bfbf;fill-opacity:1;stroke:none;stroke-width:1.05833"
     id="rect3"
     width="33.866665"
     height="33.866665"
     x="8.9009603e-07"
     y="8.9009603e-07"
     inkscape:label="bg" />
  <g
     inkscape:label="Layer 1"
     inkscape:groupmode="layer"
     id="layer1"
     style="display:inline"
     transform="matrix(0.76229063,0,0,0.6876363,3.942734,4.8439509)">
    <path
       id="path22"
       style="fill:#3d3d3d;filter:url(#filter22)"
       d="m 22,17.59375 c -3.16348,-0.07859 -5.70986,3.327399 -4.900391,6.347656 0.590658,2.862408 3.992815,4.820993 6.722095,3.606995 2.855945,-1.081259 4.151665,-4.952498 2.441494,-7.508303 C 25.378674,18.576725 23.722183,17.584269 22,17.59375 Z m 0.232422,2.8125 c 1.924743,0.176266 2.71096,3.007958 1.168901,4.167086 -1.164108,1.071527 -3.263478,0.361952 -3.537832,-1.199898 -0.452171,-1.47375 0.792693,-3.146595 2.368931,-2.967188 z"
       transform="matrix(0.90983759,0,0,0.89817643,5.1710913,4.2342489)" />
    <path
       style="fill:#8c3f23"
       d="m 2.3265603,6.0224526 c -1.2349161,1.1294587 -1.2349166,24.8480894 0,25.9775484 1.2349161,1.129458 28.4030727,1.129458 29.6379887,0 1.234917,-1.129459 1.234917,-24.8480897 0,-25.9775484 -1.234916,-1.1294589 -28.4030725,-1.1294586 -29.6379887,0 z m 2.4698323,2.2589173 c 1.2349163,-1.1294586 23.4700944,-1.1233436 24.6983234,0 1.234917,1.1294582 1.234917,20.3302541 0,21.4597131 -1.234916,1.129459 -23.4634071,1.129459 -24.6983234,0 -1.2349166,-1.129459 -1.2349162,-20.3302549 0,-21.4597131 z"
       id="rect1"
       sodipodi:nodetypes="ssssssssss" />
    <path
       style="fill:#8c3f23"
       d="m 6.6343015,6.0439643 c 0,0 0.5619199,-2.280429 2.4492955,-3.4098873 C 10.970974,1.5046183 20.850301,0.37515967 20.850301,0.37515967 V 1.5046183 c 0,0 -6.871134,0.9295281 -9.311517,1.7274017 C 9.0983987,4.0298933 9.2579727,6.0439643 9.2579727,6.0439643 Z"
       id="path16"
       sodipodi:nodetypes="csccscc" />
    <path
       id="path3"
       style="fill:#8c3f23"
       d="m 25.028295,20.040128 c -2.644385,-0.06542 -4.772931,2.76968 -4.096287,5.283695 0.493737,2.382629 3.337636,4.012926 5.619068,3.002412 2.387315,-0.900025 3.47042,-4.122386 2.040871,-6.249802 -0.739384,-1.21809 -2.124062,-2.044197 -3.563652,-2.036305 z m 0.194285,2.341085 c 1.608913,0.146721 2.266118,2.503779 0.977096,3.46862 -0.97309,0.891925 -2.727976,0.301284 -2.957311,-0.998777 -0.377975,-1.226727 0.66262,-2.619179 1.980215,-2.469843 z" />
    <ellipse
       style="fill:#8c3f23"
       id="path21"
       cx="25.019165"
       cy="24.335033"
       rx="1.3266859"
       ry="1.3753996" />
    <g
       id="g5"
       transform="matrix(1.1746497,0,0,1.9007693,-2.4660007,-21.636392)"
       style="">
      <rect
         style="fill:#2d2d2d;fill-opacity:0.81860501;stroke:none;stroke-width:1.25648;filter:url(#filter1)"
         id="rect2"
         width="2.9841523"
         height="1.417008"
         x="7.6879153"
         y="24.88344" />
      <rect
         style="fill:#2d2d2d;fill-opacity:0.81860501;stroke:none;stroke-width:1.25648;filter:url(#filter2)"
         id="rect4"
         width="2.9841523"
         height="1.417008"
         x="11.865727"
         y="24.88344" />
      <rect
         style="fill:#2d2d2d;fill-opacity:0.81860501;stroke:none;stroke-width:1.25648;filter:url(#filter3)"
         id="rect5"
         width="2.9841523"
         height="1.417008"
         x="16.043541"
         y="24.88344" />
    </g>
    <g
       id="g21"
       transform="matrix(1.1630995,0,0,1.3602844,-3.0071547,-8.5071085)"
       style="display:inline">
      <rect
         style="fill:#8c3f23;fill-opacity:1;stroke:none;stroke-width:1.3751"
         id="rect9"
         width="2.9841802"
         height="1.6971695"
         x="7.6879153"
         y="24.835707" />
      <rect
         style="fill:#8c3f23;fill-opacity:1;stroke:none;stroke-width:1.3751"
         id="rect10"
         width="2.9841802"
         height="1.6971695"
         x="11.865767"
         y="24.835707" />
      <rect
         style="fill:#8c3f23;fill-opacity:1;stroke:none;stroke-width:1.3751"
         id="rect11"
         width="2.9841802"
         height="1.6971695"
         x="16.043619"
         y="24.835707" />
    </g>
  </g>
  <g
     id="g20"
     clip-path="url(#clipPath8)"
     transform="matrix(0.76229063,0,0,0.6876363,3.942734,4.8439509)">
    <rect
       style="fill:url(#linearGradient5);stroke-width:1.05916"
       id="rect12"
       width="19.437031"
       height="1.1543167"
       x="5.2404761"
       y="9.1160822" />
    <rect
       style="fill:url(#linearGradient4);stroke-width:1.05916"
       id="use1"
       width="19.437031"
       height="1.1543167"
       x="5.2404761"
       y="13.733349" />
    <rect
       style="fill:url(#linearGradient6);stroke-width:1.05916"
       id="use2"
       width="19.437031"
       height="1.1543167"
       x="5.2404761"
       y="11.424715" />
    <rect
       style="fill:url(#linearGradient7);stroke-width:1.05916"
       id="use3"
       width="19.437031"
       height="1.1543167"
       x="5.2404761"
       y="16.041983" />
    <rect
       style="fill:url(#linearGradient8);stroke-width:1.05916"
       id="use4"
       width="19.437031"
       height="1.1543167"
       x="5.2404761"
       y="18.350615" />
  </g>
</svg>
